<svg width="44" height="44" viewBox="0 0 44 44" fill="none" xmlns="http://www.w3.org/2000/svg">
<g clip-path="url(#clip0_179561_11404)">
<path d="M22 27.5C25.0376 27.5 27.5 25.0376 27.5 22C27.5 18.9624 25.0376 16.5 22 16.5C18.9624 16.5 16.5 18.9624 16.5 22C16.5 25.0376 18.9624 27.5 22 27.5Z" stroke="#0895DF" stroke-width="2" stroke-linecap="round" stroke-linejoin="round"/>
<path d="M35.5668 27.4997C35.3228 28.0526 35.25 28.666 35.3578 29.2608C35.4657 29.8555 35.7492 30.4043 36.1718 30.8363L36.2818 30.9463C36.6227 31.2869 36.8932 31.6913 37.0777 32.1364C37.2622 32.5815 37.3572 33.0586 37.3572 33.5405C37.3572 34.0224 37.2622 34.4995 37.0777 34.9446C36.8932 35.3897 36.6227 35.7941 36.2818 36.1347C35.9413 36.4756 35.5369 36.746 35.0918 36.9306C34.6466 37.1151 34.1695 37.2101 33.6877 37.2101C33.2058 37.2101 32.7287 37.1151 32.2835 36.9306C31.8384 36.746 31.434 36.4756 31.0935 36.1347L30.9835 36.0247C30.5514 35.602 30.0026 35.3185 29.4079 35.2107C28.8132 35.1028 28.1998 35.1756 27.6468 35.4197C27.1046 35.6521 26.6421 36.038 26.3164 36.5298C25.9907 37.0217 25.8158 37.5981 25.8135 38.188V38.4997C25.8135 39.4721 25.4272 40.4048 24.7396 41.0924C24.0519 41.78 23.1193 42.1663 22.1468 42.1663C21.1744 42.1663 20.2417 41.78 19.5541 41.0924C18.8665 40.4048 18.4802 39.4721 18.4802 38.4997V38.3347C18.466 37.7278 18.2695 37.1393 17.9164 36.6456C17.5633 36.1519 17.0698 35.7759 16.5002 35.5663C15.9472 35.3223 15.3338 35.2495 14.7391 35.3573C14.1444 35.4652 13.5956 35.7487 13.1635 36.1713L13.0535 36.2813C12.713 36.6223 12.3086 36.8927 11.8634 37.0772C11.4183 37.2617 10.9412 37.3567 10.4593 37.3567C9.97747 37.3567 9.50034 37.2617 9.05521 37.0772C8.61009 36.8927 8.2057 36.6223 7.86516 36.2813C7.52425 35.9408 7.2538 35.5364 7.06928 35.0913C6.88475 34.6462 6.78978 34.169 6.78978 33.6872C6.78978 33.2053 6.88475 32.7282 7.06928 32.2831C7.2538 31.8379 7.52425 31.4335 7.86516 31.093L7.97516 30.983C8.39781 30.5509 8.68134 30.0021 8.78917 29.4074C8.89701 28.8127 8.82421 28.1993 8.58016 27.6463C8.34776 27.1041 7.96188 26.6416 7.47002 26.3159C6.97815 25.9902 6.40177 25.8154 5.81183 25.813H5.50016C4.5277 25.813 3.59507 25.4267 2.90744 24.7391C2.2198 24.0514 1.8335 23.1188 1.8335 22.1463C1.8335 21.1739 2.2198 20.2412 2.90744 19.5536C3.59507 18.866 4.5277 18.4797 5.50016 18.4797H5.66516C6.27199 18.4655 6.8605 18.2691 7.35421 17.9159C7.84792 17.5628 8.22397 17.0694 8.4335 16.4997C8.67754 15.9467 8.75034 15.3333 8.6425 14.7386C8.53467 14.1439 8.25115 13.5951 7.8285 13.163L7.7185 13.053C7.37758 12.7125 7.10713 12.3081 6.92261 11.863C6.73809 11.4178 6.64311 10.9407 6.64311 10.4588C6.64311 9.97698 6.73809 9.49985 6.92261 9.05473C7.10713 8.6096 7.37758 8.20521 7.7185 7.86467C8.05903 7.52376 8.46342 7.25331 8.90855 7.06879C9.35367 6.88427 9.83081 6.78929 10.3127 6.78929C10.7945 6.78929 11.2717 6.88427 11.7168 7.06879C12.1619 7.25331 12.5663 7.52376 12.9068 7.86467L13.0168 7.97467C13.4489 8.39732 13.9977 8.68085 14.5924 8.78868C15.1871 8.89652 15.8005 8.82372 16.3535 8.57967H16.5002C17.0424 8.34728 17.5049 7.96139 17.8306 7.46953C18.1563 6.97766 18.3311 6.40128 18.3335 5.81134V5.49967C18.3335 4.52721 18.7198 3.59458 19.4074 2.90695C20.0951 2.21932 21.0277 1.83301 22.0002 1.83301C22.9726 1.83301 23.9053 2.21932 24.5929 2.90695C25.2805 3.59458 25.6668 4.52721 25.6668 5.49967V5.66467C25.6692 6.25462 25.844 6.831 26.1697 7.32286C26.4955 7.81473 26.9579 8.20061 27.5002 8.43301C28.0531 8.67705 28.6665 8.74985 29.2612 8.64202C29.856 8.53418 30.4047 8.25066 30.8368 7.82801L30.9468 7.71801C31.2874 7.37709 31.6918 7.10664 32.1369 6.92212C32.582 6.7376 33.0591 6.64262 33.541 6.64262C34.0229 6.64262 34.5 6.7376 34.9451 6.92212C35.3902 7.10664 35.7946 7.37709 36.1352 7.71801C36.4761 8.05854 36.7465 8.46293 36.931 8.90806C37.1156 9.35319 37.2105 9.83032 37.2105 10.3122C37.2105 10.794 37.1156 11.2712 36.931 11.7163C36.7465 12.1614 36.4761 12.5658 36.1352 12.9063L36.0252 13.0163C35.6025 13.4484 35.319 13.9972 35.2112 14.5919C35.1033 15.1867 35.1761 15.8 35.4202 16.353V16.4997C35.6526 17.0419 36.0384 17.5044 36.5303 17.8301C37.0222 18.1558 37.5986 18.3307 38.1885 18.333H38.5002C39.4726 18.333 40.4053 18.7193 41.0929 19.4069C41.7805 20.0946 42.1668 21.0272 42.1668 21.9997C42.1668 22.9721 41.7805 23.9048 41.0929 24.5924C40.4053 25.28 39.4726 25.6663 38.5002 25.6663H38.3352C37.7452 25.6687 37.1688 25.8435 36.677 26.1692C36.1851 26.495 35.7992 26.9574 35.5668 27.4997V27.4997Z" stroke="#0895DF" stroke-width="2" stroke-linecap="round" stroke-linejoin="round"/>
</g>
<defs>
<clipPath id="clip0_179561_11404">
<rect width="44" height="44" fill="white"/>
</clipPath>
</defs>
</svg>
